<svg width="393" height="274" viewBox="0 0 393 274" fill="none" xmlns="http://www.w3.org/2000/svg">
<g clip-path="url(#clip0_4037_3370)">
<g filter="url(#filter0_f_4037_3370)">
<path d="M37.8945 203.306L49.5119 152.368L16 130.92L49.5119 100.983L33.4262 24.1286L109.833 79.535L130.387 12.0643L196.071 65.2366L223.774 0L259.967 67.4707L322.522 42.0016L305.096 111.26L337.715 168.006L274.712 163.985L271.137 190.795L246.562 174.709L226.455 208.668L184.006 190.795L191.603 239.052L222.433 272.564L220.199 274.351L179.985 245.754L146.473 181.858L107.152 234.137L91.9604 184.539L37.8945 203.306Z" fill="#ECFF41"/>
</g>
<path d="M37.8945 203.306L49.5119 152.368L16 130.92L49.5119 100.983L33.4262 24.1286L109.387 78.1945L130.387 12.0643L196.071 65.2366L223.774 0L259.967 67.4707L323.416 40.6611L305.543 111.706L337.715 167.56L274.712 163.985L271.137 190.795L246.562 174.709L226.455 208.668L184.006 190.795L191.603 239.052L222.433 272.564L220.199 274.351L179.985 245.754L146.473 182.305L107.152 234.137L91.9604 184.539L37.8945 203.306Z" fill="#ECFF41"/>
<path d="M126.161 147.646C125.983 147.845 125.783 148.036 125.554 148.205C124.339 149.133 123.029 150.018 121.663 150.847C122.899 150.079 124.127 149.233 125.332 148.322C125.441 148.244 125.692 148.032 126.031 147.754C126.07 147.715 126.122 147.685 126.161 147.646Z" fill="#ECFF41"/>
<path d="M288.797 141.465C288.797 144.757 287.453 147.689 284.898 149.949C282.526 152.061 279.524 153.18 276.245 153.18C274.68 153.18 273.183 152.933 271.787 152.443C271.088 152.803 270.312 153.002 269.492 153.002H257.578C255.743 153.002 254.048 151.996 253.18 150.378L252.152 148.444C252.061 149.463 251.662 150.439 250.994 151.224C250.049 152.351 248.652 152.998 247.173 152.998H237.18C234.777 152.998 232.713 151.285 232.284 148.921L229.62 134.491C229.59 134.591 229.542 134.699 229.499 134.799C228.111 138.191 226.238 141.261 223.943 143.942C221.571 146.704 218.717 148.947 215.46 150.612C212.068 152.347 208.151 153.223 203.806 153.223C199.69 153.223 196.029 152.378 192.937 150.69C190.564 149.394 188.5 147.728 186.773 145.724C186.426 146.032 186.075 146.331 185.706 146.622C183.182 148.695 180.363 150.343 177.331 151.497C174.23 152.703 171.107 153.31 168.067 153.31C165.612 153.31 163.101 152.79 160.598 151.775C158.105 150.768 155.802 149.263 153.767 147.299C153.707 147.238 153.637 147.177 153.577 147.108L153.308 148.765C152.909 151.176 150.827 152.954 148.381 152.954H145.149C138.11 152.954 131.717 151.042 126.443 147.403C126.352 147.481 126.252 147.563 126.144 147.641C126.105 147.68 126.053 147.711 126.014 147.75C125.675 148.027 125.424 148.24 125.315 148.318C124.11 149.224 122.882 150.074 121.646 150.842C121.607 150.864 121.568 150.894 121.525 150.912C120.597 151.488 119.668 152.018 118.732 152.508C118.732 152.508 118.701 152.529 118.684 152.538C111.224 156.454 102.749 158.619 94.8033 158.619C74.978 158.623 61.1294 145.59 61.1294 126.927C61.1294 109.266 73.6639 96.4538 90.9432 96.4538C99.301 96.4538 106.566 99.3554 111.393 104.621C111.623 104.868 111.84 105.12 112.052 105.367C112.091 105.076 112.143 104.777 112.191 104.478C114.993 87.2026 124.257 77.3008 137.598 77.3008C143.991 77.3008 149.252 79.5127 152.826 83.6938C155.507 86.8339 157.103 90.9326 157.562 95.7989C159.397 93.9946 161.44 92.4766 163.665 91.2535C167.143 89.3191 171.081 88.3433 175.349 88.3433C179.825 88.3433 183.625 89.601 186.648 92.0732C187.892 93.0881 189.259 94.6062 190.256 96.8008C191.822 95.1049 193.587 93.5999 195.53 92.2944C199.421 89.6704 204.074 88.3476 209.37 88.3476C213.109 88.3476 216.479 89.0372 219.389 90.3817C220.486 90.8892 221.523 91.4704 222.49 92.1166C222.681 91.5484 222.98 91.0193 223.366 90.5509C224.312 89.4059 225.721 88.7466 227.196 88.7466H237.388C239.032 88.7466 240.52 89.5533 241.435 90.8111C243.14 89.2454 245.412 88.3996 247.984 88.3996C250.925 88.3996 253.926 89.0155 256.91 90.256C259.59 91.3619 262.106 92.6978 264.379 94.2158C264.908 94.5628 265.415 94.9141 265.905 95.2741V93.8298C265.905 91.0757 268.139 88.8464 270.889 88.8464H280.981C283.744 88.8464 285.965 91.08 285.965 93.8298V131.789C285.965 132.457 285.835 133.094 285.605 133.676C287.7 135.84 288.797 138.52 288.797 141.482V141.465Z" fill="#ECFF41"/>
<path d="M122.54 144.198C121.403 145.026 120.258 145.854 119.079 146.592C120.276 145.863 121.442 145.078 122.548 144.237L122.54 144.198ZM119.669 137.189C119.469 137.328 119.261 137.466 119.048 137.596C119.257 137.466 119.469 137.336 119.677 137.206L119.669 137.184V137.189Z" fill="#141414"/>
<path d="M137.603 82.2887C148.81 82.2887 154.466 90.5422 152.241 104.543C150.423 116.027 143.654 127.335 133.874 135.862C137.3 138.824 141.736 140.529 146.993 140.529H149.617L148.403 147.975H145.171C137.703 147.975 131.448 145.551 126.704 141.244C126.338 140.916 122.765 144.02 122.332 144.345C120.471 145.746 118.506 147.017 116.442 148.097C116.433 148.11 116.424 148.119 116.403 148.119C109.611 151.701 101.904 153.644 94.8257 153.644C78.7434 153.644 66.1089 143.803 66.1089 126.931C66.1089 111.994 76.3012 101.446 90.9478 101.446C103.951 101.446 113.063 109.7 112.057 121.337L102.723 121.115C102.584 114.223 97.5579 109.917 90.519 109.917C81.9054 109.917 75.7329 116.448 75.7329 126.281C75.733 137.918 84.061 145.256 95.8364 145.165C102.698 145.104 109.711 142.931 115.687 139.622C116.199 139.344 122.042 135.82 121.958 135.684C117.014 128.055 115.201 117.376 117.114 105.262C119.634 89.7355 127.511 82.2887 137.603 82.2887ZM137.104 89.736C132.047 89.7362 127.81 95.0315 126.197 105.349C124.683 115.041 125.797 123.562 129.126 129.755C136.593 122.4 141.841 113.246 143.354 103.736C144.772 94.8491 142.161 89.736 137.104 89.736Z" fill="#141414"/>
<path d="M137.603 82.2887C148.81 82.2887 154.466 90.5422 152.241 104.543C150.423 116.027 143.654 127.335 133.874 135.862C137.3 138.824 141.736 140.529 146.993 140.529H149.617L148.403 147.975H145.171C137.703 147.975 131.448 145.551 126.704 141.244C126.338 140.916 122.765 144.02 122.332 144.345C120.471 145.746 118.506 147.017 116.442 148.097C116.433 148.11 116.424 148.119 116.403 148.119C109.611 151.701 101.904 153.644 94.8257 153.644C78.7434 153.644 66.1089 143.803 66.1089 126.931C66.1089 111.994 76.3012 101.446 90.9478 101.446C103.951 101.446 113.063 109.7 112.057 121.337L102.723 121.115C102.584 114.223 97.5579 109.917 90.519 109.917C81.9054 109.917 75.7329 116.448 75.7329 126.281C75.733 137.918 84.061 145.256 95.8364 145.165C102.698 145.104 109.711 142.931 115.687 139.622C116.199 139.344 122.042 135.82 121.958 135.684C117.014 128.055 115.201 117.376 117.114 105.262C119.634 89.7355 127.511 82.2887 137.603 82.2887ZM137.104 89.736C132.047 89.7362 127.81 95.0315 126.197 105.349C124.683 115.041 125.797 123.562 129.126 129.755C136.593 122.4 141.841 113.246 143.354 103.736C144.772 94.8491 142.161 89.736 137.104 89.736Z" stroke="white"/>
<path d="M175.354 93.3224C178.655 93.3224 181.37 94.1901 183.482 95.9249L183.477 95.9288C185.598 97.6637 186.657 100.267 186.657 103.736C186.657 107.206 185.98 110.576 184.644 113.837C183.291 117.099 181.417 119.983 178.993 122.494C176.573 125.005 173.71 127.01 170.41 128.506C167.109 130.002 163.509 130.748 159.61 130.748C158.122 130.748 156.396 130.561 154.414 130.171C152.432 129.781 150.523 129.134 148.71 128.236V118.543C149.248 119.02 149.799 119.493 150.375 119.94C150.944 120.386 151.434 120.664 151.833 120.785C152.102 117.255 152.852 113.837 154.058 110.515C155.273 107.193 156.89 104.26 158.903 101.719C160.928 99.1774 163.309 97.143 166.072 95.6163C168.822 94.0896 172.053 93.3224 175.354 93.3224ZM177.575 106.521C177.575 103.35 176.086 101.854 173.137 102.031C171.042 102.331 169.247 103.068 167.733 104.234C166.215 105.401 164.958 106.876 163.943 108.672C162.937 110.468 162.16 112.502 161.631 114.775C161.085 117.047 160.716 119.381 160.516 121.775C163.548 121.657 166.137 121.076 168.292 120.03C170.448 118.981 172.214 117.706 173.588 116.21C174.963 114.714 175.983 113.118 176.621 111.413L176.616 111.417C177.253 109.713 177.575 108.078 177.575 106.521Z" fill="#141414"/>
<path d="M175.354 93.3224C178.655 93.3224 181.37 94.1901 183.482 95.9249L183.477 95.9288C185.598 97.6637 186.657 100.267 186.657 103.736C186.657 107.206 185.98 110.576 184.644 113.837C183.291 117.099 181.417 119.983 178.993 122.494C176.573 125.005 173.71 127.01 170.41 128.506C167.109 130.002 163.509 130.748 159.61 130.748C158.122 130.748 156.396 130.561 154.414 130.171C152.432 129.781 150.523 129.134 148.71 128.236V118.543C149.248 119.02 149.799 119.493 150.375 119.94C150.944 120.386 151.434 120.664 151.833 120.785C152.102 117.255 152.852 113.837 154.058 110.515C155.273 107.193 156.89 104.26 158.903 101.719C160.928 99.1774 163.309 97.143 166.072 95.6163C168.822 94.0896 172.053 93.3224 175.354 93.3224ZM177.575 106.521C177.575 103.35 176.086 101.854 173.137 102.031C171.042 102.331 169.247 103.068 167.733 104.234C166.215 105.401 164.958 106.876 163.943 108.672C162.937 110.468 162.16 112.502 161.631 114.775C161.085 117.047 160.716 119.381 160.516 121.775C163.548 121.657 166.137 121.076 168.292 120.03C170.448 118.981 172.214 117.706 173.588 116.21C174.963 114.714 175.983 113.118 176.621 111.413L176.616 111.417C177.253 109.713 177.575 108.078 177.575 106.521Z" stroke="white"/>
<path d="M209.378 93.3312C212.401 93.3312 215.043 93.8601 217.294 94.9054C219.549 95.9507 221.453 97.3696 222.997 99.1652C224.541 100.961 225.738 103.073 226.575 105.497C227.421 107.922 227.941 110.502 228.141 113.256H217.849C217.311 110.923 216.604 108.888 215.724 107.153C214.856 105.419 213.928 103.983 212.952 102.847C211.976 101.711 210.988 100.865 209.973 100.292C208.967 99.724 208.017 99.4338 207.149 99.4337C205.536 99.4337 203.987 100.171 202.504 101.637C201.029 103.103 199.741 104.989 198.665 107.292C197.589 109.595 196.731 112.138 196.094 114.922C195.456 117.702 195.135 120.404 195.135 123.036C195.135 125.907 195.456 128.532 196.094 130.896C196.731 133.259 197.589 135.272 198.665 136.946C199.741 138.621 200.96 139.926 202.305 140.854C203.649 141.782 205.029 142.241 206.442 142.241C207.856 142.241 209.096 141.82 210.38 140.984C211.655 140.146 212.813 138.95 213.858 137.393C214.904 135.836 215.771 133.923 216.482 131.651C217.189 129.378 217.649 126.836 217.849 124.022V124.017L227.643 123.839C227.035 126.949 226.129 129.972 224.91 132.903C223.704 135.835 222.117 138.438 220.174 140.711C218.218 142.984 215.897 144.809 213.204 146.184C210.511 147.559 207.379 148.249 203.822 148.249C200.522 148.249 197.698 147.611 195.339 146.323C192.984 145.035 191.05 143.313 189.536 141.157C188.729 140.012 188.031 138.763 187.463 137.449C186.088 139.462 184.461 141.24 182.574 142.776C180.449 144.51 178.115 145.877 175.557 146.865C173.002 147.854 170.512 148.34 168.088 148.34C166.275 148.34 164.41 147.949 162.493 147.173C160.568 146.397 158.824 145.247 157.236 143.721C154.131 140.733 152.058 136.395 151.854 132.079C151.841 131.789 151.789 131.433 151.858 131.155C153.216 131.429 154.513 131.863 155.896 132.045C156.573 132.136 157.25 132.197 157.931 132.24C158.113 132.253 159.983 132.249 159.991 132.301C160.351 133.802 161.219 135.272 162.194 136.465C163.075 137.545 164.194 138.451 165.499 138.945C168.769 140.181 172.881 138.781 175.713 137.037C178.237 135.48 180.471 133.537 182.423 131.203C183.429 129.998 184.357 128.749 185.216 127.465C185.164 126.767 185.146 126.068 185.146 125.37C185.146 121.961 185.606 118.37 186.513 114.601C187.419 110.832 188.846 107.384 190.802 104.239C192.758 101.099 195.261 98.4972 198.318 96.4327C201.38 94.3683 205.067 93.3312 209.378 93.3312Z" fill="url(#paint0_linear_4037_3370)"/>
<path d="M209.378 93.3312C212.401 93.3312 215.043 93.8601 217.294 94.9054C219.549 95.9507 221.453 97.3696 222.997 99.1652C224.541 100.961 225.738 103.073 226.575 105.497C227.421 107.922 227.941 110.502 228.141 113.256H217.849C217.311 110.923 216.604 108.888 215.724 107.153C214.856 105.419 213.928 103.983 212.952 102.847C211.976 101.711 210.988 100.865 209.973 100.292C208.967 99.724 208.017 99.4338 207.149 99.4337C205.536 99.4337 203.987 100.171 202.504 101.637C201.029 103.103 199.741 104.989 198.665 107.292C197.589 109.595 196.731 112.138 196.094 114.922C195.456 117.702 195.135 120.404 195.135 123.036C195.135 125.907 195.456 128.532 196.094 130.896C196.731 133.259 197.589 135.272 198.665 136.946C199.741 138.621 200.96 139.926 202.305 140.854C203.649 141.782 205.029 142.241 206.442 142.241C207.856 142.241 209.096 141.82 210.38 140.984C211.655 140.146 212.813 138.95 213.858 137.393C214.904 135.836 215.771 133.923 216.482 131.651C217.189 129.378 217.649 126.836 217.849 124.022V124.017L227.643 123.839C227.035 126.949 226.129 129.972 224.91 132.903C223.704 135.835 222.117 138.438 220.174 140.711C218.218 142.984 215.897 144.809 213.204 146.184C210.511 147.559 207.379 148.249 203.822 148.249C200.522 148.249 197.698 147.611 195.339 146.323C192.984 145.035 191.05 143.313 189.536 141.157C188.729 140.012 188.031 138.763 187.463 137.449C186.088 139.462 184.461 141.24 182.574 142.776C180.449 144.51 178.115 145.877 175.557 146.865C173.002 147.854 170.512 148.34 168.088 148.34C166.275 148.34 164.41 147.949 162.493 147.173C160.568 146.397 158.824 145.247 157.236 143.721C154.131 140.733 152.058 136.395 151.854 132.079C151.841 131.789 151.789 131.433 151.858 131.155C153.216 131.429 154.513 131.863 155.896 132.045C156.573 132.136 157.25 132.197 157.931 132.24C158.113 132.253 159.983 132.249 159.991 132.301C160.351 133.802 161.219 135.272 162.194 136.465C163.075 137.545 164.194 138.451 165.499 138.945C168.769 140.181 172.881 138.781 175.713 137.037C178.237 135.48 180.471 133.537 182.423 131.203C183.429 129.998 184.357 128.749 185.216 127.465C185.164 126.767 185.146 126.068 185.146 125.37C185.146 121.961 185.606 118.37 186.513 114.601C187.419 110.832 188.846 107.384 190.802 104.239C192.758 101.099 195.261 98.4972 198.318 96.4327C201.38 94.3683 205.067 93.3312 209.378 93.3312Z" stroke="white"/>
<path d="M248.002 93.3745C250.288 93.3745 252.63 93.8685 255.02 94.853C257.405 95.8419 259.613 97.0095 261.63 98.354C263.646 99.6983 265.364 101.06 266.777 102.439C268.191 103.814 269.033 104.894 269.302 105.67V117.515C268.291 116.08 267.012 114.448 265.468 112.623C263.919 110.797 262.371 109.062 260.822 107.418C259.274 105.775 257.796 104.4 256.382 103.29C254.968 102.184 253.926 101.628 253.254 101.628C253.185 101.629 253.154 101.781 253.154 102.075C253.154 103.992 253.576 106.217 254.417 108.758C255.258 111.3 256.755 114.519 258.91 118.405L253.154 120.2L269.506 148.019H257.596L244.272 123.163L242.958 123.522L247.199 148.023H237.207L227.214 93.73H237.41L241.144 114.906L246.181 113.833C245.235 111.14 244.463 108.615 243.86 106.251C243.258 103.888 242.953 101.841 242.953 100.106C242.953 98.0112 243.374 96.3675 244.216 95.1704C245.057 93.9734 246.319 93.3745 248.002 93.3745Z" fill="#141414"/>
<path d="M248.002 93.3745C250.288 93.3745 252.63 93.8685 255.02 94.853C257.405 95.8419 259.613 97.0095 261.63 98.354C263.646 99.6983 265.364 101.06 266.777 102.439C268.191 103.814 269.033 104.894 269.302 105.67V117.515C268.291 116.08 267.012 114.448 265.468 112.623C263.919 110.797 262.371 109.062 260.822 107.418C259.274 105.775 257.796 104.4 256.382 103.29C254.968 102.184 253.926 101.628 253.254 101.628C253.185 101.629 253.154 101.781 253.154 102.075C253.154 103.992 253.576 106.217 254.417 108.758C255.258 111.3 256.755 114.519 258.91 118.405L253.154 120.2L269.506 148.019H257.596L244.272 123.163L242.958 123.522L247.199 148.023H237.207L227.214 93.73H237.41L241.144 114.906L246.181 113.833C245.235 111.14 244.463 108.615 243.86 106.251C243.258 103.888 242.953 101.841 242.953 100.106C242.953 98.0112 243.374 96.3675 244.216 95.1704C245.057 93.9734 246.319 93.3745 248.002 93.3745Z" stroke="white"/>
<path d="M276.241 134.743C278.327 134.743 280.109 135.402 281.588 136.716C283.067 138.035 283.809 139.618 283.809 141.469C283.809 143.321 283.067 144.909 281.588 146.227C280.109 147.546 278.323 148.201 276.241 148.201C274.159 148.201 272.372 147.541 270.893 146.227C269.414 144.913 268.672 143.326 268.672 141.469C268.672 139.618 269.414 138.03 270.893 136.716C272.372 135.402 274.155 134.743 276.241 134.743ZM280.986 131.781H270.893V93.817H280.986V131.781Z" fill="#060606"/>
<path d="M276.241 134.743C278.327 134.743 280.109 135.402 281.588 136.716C283.067 138.035 283.809 139.618 283.809 141.469C283.809 143.321 283.067 144.909 281.588 146.227C280.109 147.546 278.323 148.201 276.241 148.201C274.159 148.201 272.372 147.541 270.893 146.227C269.414 144.913 268.672 143.326 268.672 141.469C268.672 139.618 269.414 138.03 270.893 136.716C272.372 135.402 274.155 134.743 276.241 134.743ZM280.986 131.781H270.893V93.817H280.986V131.781Z" stroke="white"/>
</g>
<defs>
<filter id="filter0_f_4037_3370" x="8.0465" y="-7.9535" width="337.621" height="290.258" filterUnits="userSpaceOnUse" color-interpolation-filters="sRGB">
<feFlood flood-opacity="0" result="BackgroundImageFix"/>
<feBlend mode="normal" in="SourceGraphic" in2="BackgroundImageFix" result="shape"/>
<feGaussianBlur stdDeviation="3.97675" result="effect1_foregroundBlur_4037_3370"/>
</filter>
<linearGradient id="paint0_linear_4037_3370" x1="218.027" y1="148.34" x2="174.811" y2="93.3312" gradientUnits="userSpaceOnUse">
<stop offset="0.587286"/>
<stop offset="1" stop-color="#999999"/>
</linearGradient>
<clipPath id="clip0_4037_3370">
<rect width="393" height="274" fill="white"/>
</clipPath>
</defs>
</svg>
