<svg width="1847" height="1578" viewBox="0 0 1847 1578" fill="none" xmlns="http://www.w3.org/2000/svg">
<g filter="url(#filter0_f_4019_2929)">
<path d="M133.44 1164.51L199.469 874.998L9 753.098L199.469 582.946L108.044 146.138L542.312 461.046L659.133 77.5688L1032.45 379.779L1189.91 9L1395.61 392.477L1751.15 247.721L1652.11 641.356L1837.5 963.883L1479.42 941.027L1459.1 1093.4L1319.43 1001.98L1205.14 1194.99L963.883 1093.4L1007.06 1367.68L1182.29 1558.15L1169.59 1568.3L941.027 1405.77L750.558 1042.61L527.075 1339.74L440.729 1057.85L133.44 1164.51Z" fill="#ECFF41"/>
</g>
<path d="M133.44 1164.51L199.469 874.998L9 753.098L199.469 582.946L108.044 146.138L539.773 453.427L659.133 77.5688L1032.45 379.779L1189.91 9L1395.61 392.477L1756.23 240.102L1654.65 643.896L1837.5 961.344L1479.42 941.027L1459.1 1093.4L1319.43 1001.98L1205.14 1194.99L963.883 1093.4L1007.06 1367.68L1182.29 1558.15L1169.59 1568.3L941.027 1405.77L750.558 1045.15L527.075 1339.74L440.729 1057.85L133.44 1164.51Z" fill="#ECFF41"/>
<path d="M635.112 848.161C634.101 849.295 632.967 850.379 631.661 851.341C624.758 856.616 617.314 861.645 609.549 866.353C616.574 861.99 623.551 857.183 630.403 852.006C631.02 851.562 632.449 850.355 634.372 848.777C634.594 848.555 634.89 848.383 635.112 848.161Z" fill="#ECFF41"/>
<path d="M1559.47 813.033C1559.47 831.743 1551.83 848.407 1537.31 861.25C1523.83 873.255 1506.77 879.615 1488.13 879.615C1479.23 879.615 1470.73 878.21 1462.79 875.425C1458.82 877.471 1454.41 878.604 1449.75 878.604H1382.04C1371.61 878.604 1361.97 872.886 1357.04 863.691L1351.2 852.696C1350.68 858.489 1348.41 864.036 1344.62 868.498C1339.24 874.907 1331.3 878.58 1322.9 878.58H1266.1C1252.45 878.58 1240.71 868.843 1238.27 855.408L1223.14 773.395C1222.96 773.961 1222.69 774.578 1222.45 775.145C1214.56 794.422 1203.91 811.875 1190.87 827.109C1177.38 842.811 1161.16 855.556 1142.65 865.022C1123.37 874.882 1101.11 879.862 1076.41 879.862C1053.02 879.862 1032.21 875.055 1014.64 865.466C1001.15 858.095 989.421 848.629 979.61 837.24C977.638 838.991 975.641 840.691 973.546 842.343C959.199 854.126 943.176 863.494 925.945 870.051C908.319 876.904 890.571 880.355 873.29 880.355C859.338 880.355 845.065 877.397 830.842 871.628C816.667 865.909 803.578 857.355 792.016 846.189C791.671 845.843 791.277 845.498 790.932 845.104L789.403 854.521C787.136 868.227 775.303 878.333 761.4 878.333H743.035C703.027 878.333 666.691 867.462 636.716 846.78C636.198 847.224 635.631 847.692 635.015 848.136C634.793 848.358 634.497 848.53 634.275 848.752C632.353 850.33 630.923 851.538 630.307 851.982C623.454 857.134 616.477 861.965 609.452 866.328C609.23 866.452 609.008 866.624 608.762 866.723C603.486 870.001 598.211 873.009 592.887 875.794C592.887 875.794 592.714 875.918 592.615 875.967C550.216 898.227 502.048 910.527 456.888 910.527C344.208 910.552 265.498 836.476 265.498 730.403C265.498 630.025 336.739 557.206 434.948 557.206C482.451 557.206 523.741 573.698 551.177 603.624C552.484 605.029 553.716 606.459 554.924 607.864C555.146 606.212 555.442 604.511 555.713 602.81C571.637 504.626 624.292 448.348 700.118 448.348C736.453 448.348 766.355 460.92 786.667 484.683C801.901 502.531 810.973 525.826 813.586 553.484C824.013 543.229 835.624 534.601 848.27 527.65C868.04 516.656 890.423 511.109 914.679 511.109C940.119 511.109 961.713 518.258 978.895 532.309C985.97 538.077 993.735 546.705 999.404 559.178C1008.3 549.54 1018.34 540.986 1029.38 533.566C1051.49 518.652 1077.94 511.134 1108.04 511.134C1129.29 511.134 1148.44 515.053 1164.98 522.695C1171.22 525.579 1177.11 528.882 1182.61 532.555C1183.69 529.326 1185.4 526.319 1187.59 523.656C1192.96 517.149 1200.97 513.402 1209.36 513.402H1267.29C1276.63 513.402 1285.08 517.987 1290.28 525.135C1299.97 516.236 1312.89 511.43 1327.51 511.43C1344.22 511.43 1361.28 514.93 1378.24 521.98C1393.47 528.266 1407.77 535.859 1420.69 544.486C1423.7 546.458 1426.58 548.455 1429.37 550.501V542.292C1429.37 526.639 1442.06 513.969 1457.69 513.969H1515.05C1530.75 513.969 1543.38 526.664 1543.38 542.292V758.037C1543.38 761.833 1542.64 765.457 1541.33 768.76C1553.24 781.061 1559.47 796.295 1559.47 813.132V813.033Z" fill="#ECFF41"/>
<path d="M614.53 828.564C608.071 833.272 601.563 837.98 594.858 842.171C601.662 838.03 608.293 833.568 614.579 828.786L614.53 828.564ZM598.211 788.728C597.077 789.517 595.893 790.306 594.686 791.045C595.869 790.306 597.077 789.566 598.26 788.827L598.211 788.703V788.728Z" fill="#141414"/>
<path d="M700.143 476.697C763.84 476.697 795.985 523.607 783.339 603.18C773.01 668.455 734.53 732.721 678.942 781.185C698.417 798.021 723.635 807.708 753.512 807.708H768.425L761.522 850.034H743.158C700.709 850.034 665.162 836.254 638.194 811.776C636.122 809.904 615.812 827.552 613.347 829.402C602.771 837.364 591.604 844.587 579.87 850.725C579.821 850.799 579.771 850.848 579.648 850.848C541.045 871.209 497.241 882.253 457.011 882.253C365.605 882.253 293.797 826.32 293.797 730.428C293.797 645.53 351.727 585.579 434.973 585.579C508.876 585.579 560.667 632.49 554.948 698.628L501.899 697.371C501.111 658.201 472.541 633.723 432.532 633.723C383.576 633.723 348.497 670.847 348.497 726.731C348.497 792.869 395.827 834.578 462.754 834.061C501.752 833.716 541.612 821.365 575.581 802.557C578.489 800.979 611.709 780.944 611.227 780.174C583.125 736.813 572.82 676.122 583.691 607.273C598.014 519.023 642.78 476.697 700.143 476.697ZM697.308 519.022C668.565 519.022 644.481 549.121 635.311 607.765C626.709 662.851 633.041 711.284 651.966 746.484C694.406 704.679 724.227 652.647 732.829 598.595C740.89 548.086 726.05 519.022 697.308 519.022Z" fill="#141414"/>
<path d="M700.143 476.697C763.84 476.697 795.985 523.607 783.339 603.18C773.01 668.455 734.53 732.721 678.942 781.185C698.417 798.021 723.635 807.708 753.512 807.708H768.425L761.522 850.034H743.158C700.709 850.034 665.162 836.254 638.194 811.776C636.122 809.904 615.812 827.552 613.347 829.402C602.771 837.364 591.604 844.587 579.87 850.725C579.821 850.799 579.771 850.848 579.648 850.848C541.045 871.209 497.241 882.253 457.011 882.253C365.605 882.253 293.797 826.32 293.797 730.428C293.797 645.53 351.727 585.579 434.973 585.579C508.876 585.579 560.667 632.49 554.948 698.628L501.899 697.371C501.111 658.201 472.541 633.723 432.532 633.723C383.576 633.723 348.497 670.847 348.497 726.731C348.497 792.869 395.827 834.578 462.754 834.061C501.752 833.716 541.612 821.365 575.581 802.557C578.489 800.979 611.709 780.944 611.227 780.174C583.125 736.813 572.82 676.122 583.691 607.273C598.014 519.023 642.78 476.697 700.143 476.697ZM697.308 519.022C668.565 519.022 644.481 549.121 635.311 607.765C626.709 662.851 633.041 711.284 651.966 746.484C694.406 704.679 724.227 652.647 732.829 598.595C740.89 548.086 726.05 519.022 697.308 519.022Z" stroke="white"/>
<path d="M914.704 539.408C933.463 539.408 948.894 544.339 960.899 554.199L960.875 554.224C972.929 564.084 978.944 578.874 978.944 598.595C978.944 618.316 975.098 637.47 967.506 656.007C959.815 674.545 949.166 690.937 935.386 705.21C921.631 719.483 905.361 730.872 886.602 739.376C867.842 747.881 847.382 752.121 825.221 752.121C816.766 752.121 806.955 751.061 795.689 748.842C784.424 746.623 773.578 742.951 763.273 737.848V682.753C766.33 685.465 769.461 688.152 772.739 690.691C775.969 693.23 778.755 694.808 781.022 695.498C782.551 675.432 786.815 656.007 793.668 637.124C800.57 618.242 809.765 601.578 821.203 587.133C832.715 572.688 846.249 561.126 861.951 552.448C877.58 543.771 895.945 539.408 914.704 539.408ZM927.325 614.421C927.325 596.401 918.87 587.897 902.107 588.907C890.201 590.608 879.996 594.799 871.393 601.43C862.765 608.061 855.616 616.442 849.848 626.648C844.129 636.853 839.715 648.414 836.708 661.331C833.602 674.248 831.507 687.511 830.373 701.118C847.604 700.453 862.321 697.149 874.572 691.208C886.824 685.243 896.857 677.996 904.671 669.491C912.485 660.987 918.279 651.915 921.902 642.228L921.877 642.252C925.501 632.564 927.325 623.271 927.325 614.421Z" fill="#141414"/>
<path d="M914.704 539.408C933.463 539.408 948.894 544.339 960.899 554.199L960.875 554.224C972.929 564.084 978.944 578.874 978.944 598.595C978.944 618.316 975.098 637.47 967.506 656.007C959.815 674.545 949.166 690.937 935.386 705.21C921.631 719.483 905.361 730.872 886.602 739.376C867.842 747.881 847.382 752.121 825.221 752.121C816.766 752.121 806.955 751.061 795.689 748.842C784.424 746.623 773.578 742.951 763.273 737.848V682.753C766.33 685.465 769.461 688.152 772.739 690.691C775.969 693.23 778.755 694.808 781.022 695.498C782.551 675.432 786.815 656.007 793.668 637.124C800.57 618.242 809.765 601.578 821.203 587.133C832.715 572.688 846.249 561.126 861.951 552.448C877.58 543.771 895.945 539.408 914.704 539.408ZM927.325 614.421C927.325 596.401 918.87 587.897 902.107 588.907C890.201 590.608 879.996 594.799 871.393 601.43C862.765 608.061 855.616 616.442 849.848 626.648C844.129 636.853 839.715 648.414 836.708 661.331C833.602 674.248 831.507 687.511 830.373 701.118C847.604 700.453 862.321 697.149 874.572 691.208C886.824 685.243 896.857 677.996 904.671 669.491C912.485 660.987 918.279 651.915 921.902 642.228L921.877 642.252C925.501 632.564 927.325 623.271 927.325 614.421Z" stroke="white"/>
<path d="M1108.09 539.458C1125.27 539.458 1140.28 542.466 1153.08 548.406C1165.89 554.347 1176.72 562.408 1185.49 572.614C1194.27 582.819 1201.07 594.824 1205.83 608.604C1210.64 622.384 1213.59 637.051 1214.73 652.704H1156.23C1153.17 639.442 1149.16 627.881 1144.15 618.021C1139.22 608.16 1133.95 600.001 1128.4 593.542C1122.85 587.084 1117.23 582.277 1111.46 579.023C1105.75 575.793 1100.35 574.142 1095.42 574.142C1086.25 574.142 1077.45 578.332 1069.02 586.664C1060.63 594.996 1053.31 605.72 1047.2 618.81C1041.09 631.899 1036.21 646.344 1032.58 662.17C1028.96 677.971 1027.13 693.329 1027.13 708.292C1027.13 724.611 1028.96 739.525 1032.58 752.959C1036.21 766.394 1041.09 777.833 1047.2 787.348C1053.31 796.863 1060.24 804.283 1067.88 809.558C1075.52 814.833 1083.36 817.447 1091.4 817.447C1099.44 817.446 1106.49 815.055 1113.78 810.297C1121.03 805.54 1127.61 798.736 1133.55 789.887C1139.49 781.037 1144.42 770.166 1148.47 757.249C1152.48 744.332 1155.1 729.886 1156.23 713.888V713.864L1211.89 712.853C1208.44 730.527 1203.29 747.709 1196.36 764.373C1189.51 781.037 1180.49 795.827 1169.44 808.744C1158.33 821.661 1145.14 832.039 1129.83 839.854C1114.52 847.668 1096.72 851.588 1076.51 851.588C1057.75 851.588 1041.7 847.964 1028.29 840.643C1014.91 833.322 1003.91 823.535 995.31 811.283C990.725 804.776 986.756 797.676 983.526 790.207C975.712 801.645 966.468 811.752 955.745 820.479C943.666 830.339 930.404 838.103 915.86 843.724C901.341 849.344 887.191 852.106 873.411 852.106C863.107 852.106 852.507 849.887 841.611 845.475C830.666 841.062 820.757 834.529 811.734 825.852C794.085 808.867 782.301 784.217 781.143 759.69C781.069 758.038 780.774 756.016 781.168 754.439C788.883 755.992 796.254 758.457 804.117 759.492C807.963 760.01 811.809 760.355 815.679 760.602C816.714 760.676 827.338 760.651 827.388 760.947C829.434 769.476 834.364 777.833 839.91 784.612C844.914 790.75 851.274 795.902 858.694 798.712C877.281 805.738 900.65 797.775 916.747 787.865C931.094 779.016 943.79 767.972 954.883 754.71C960.602 747.857 965.877 740.758 970.758 733.461C970.462 729.492 970.363 725.523 970.363 721.554C970.363 702.178 972.976 681.767 978.128 660.346C983.28 638.924 991.39 619.327 1002.51 601.455C1013.63 583.608 1027.85 568.817 1045.23 557.083C1062.63 545.349 1083.58 539.458 1108.09 539.458Z" fill="url(#paint0_linear_4019_2929)"/>
<path d="M1108.09 539.458C1125.27 539.458 1140.28 542.466 1153.08 548.406C1165.89 554.347 1176.72 562.408 1185.49 572.614C1194.27 582.819 1201.07 594.824 1205.83 608.604C1210.64 622.384 1213.59 637.051 1214.73 652.704H1156.23C1153.17 639.442 1149.16 627.881 1144.15 618.021C1139.22 608.16 1133.95 600.001 1128.4 593.542C1122.85 587.084 1117.23 582.277 1111.46 579.023C1105.75 575.793 1100.35 574.142 1095.42 574.142C1086.25 574.142 1077.45 578.332 1069.02 586.664C1060.63 594.996 1053.31 605.72 1047.2 618.81C1041.09 631.899 1036.21 646.344 1032.58 662.17C1028.96 677.971 1027.13 693.329 1027.13 708.292C1027.13 724.611 1028.96 739.525 1032.58 752.959C1036.21 766.394 1041.09 777.833 1047.2 787.348C1053.31 796.863 1060.24 804.283 1067.88 809.558C1075.52 814.833 1083.36 817.447 1091.4 817.447C1099.44 817.446 1106.49 815.055 1113.78 810.297C1121.03 805.54 1127.61 798.736 1133.55 789.887C1139.49 781.037 1144.42 770.166 1148.47 757.249C1152.48 744.332 1155.1 729.886 1156.23 713.888V713.864L1211.89 712.853C1208.44 730.527 1203.29 747.709 1196.36 764.373C1189.51 781.037 1180.49 795.827 1169.44 808.744C1158.33 821.661 1145.14 832.039 1129.83 839.854C1114.52 847.668 1096.72 851.588 1076.51 851.588C1057.75 851.588 1041.7 847.964 1028.29 840.643C1014.91 833.322 1003.91 823.535 995.31 811.283C990.725 804.776 986.756 797.676 983.526 790.207C975.712 801.645 966.468 811.752 955.745 820.479C943.666 830.339 930.404 838.103 915.86 843.724C901.341 849.344 887.191 852.106 873.411 852.106C863.107 852.106 852.507 849.887 841.611 845.475C830.666 841.062 820.757 834.529 811.734 825.852C794.085 808.867 782.301 784.217 781.143 759.69C781.069 758.038 780.774 756.016 781.168 754.439C788.883 755.992 796.254 758.457 804.117 759.492C807.963 760.01 811.809 760.355 815.679 760.602C816.714 760.676 827.338 760.651 827.388 760.947C829.434 769.476 834.364 777.833 839.91 784.612C844.914 790.75 851.274 795.902 858.694 798.712C877.281 805.738 900.65 797.775 916.747 787.865C931.094 779.016 943.79 767.972 954.883 754.71C960.602 747.857 965.877 740.758 970.758 733.461C970.462 729.492 970.363 725.523 970.363 721.554C970.363 702.178 972.976 681.767 978.128 660.346C983.28 638.924 991.39 619.327 1002.51 601.455C1013.63 583.608 1027.85 568.817 1045.23 557.083C1062.63 545.349 1083.58 539.458 1108.09 539.458Z" stroke="white"/>
<path d="M1327.61 539.705C1340.6 539.705 1353.91 542.515 1367.49 548.111C1381.05 553.731 1393.6 560.362 1405.06 568.003C1416.52 575.645 1426.28 583.386 1434.32 591.225C1442.36 599.039 1447.14 605.178 1448.67 609.59V676.912C1442.92 668.752 1435.65 659.483 1426.88 649.105C1418.08 638.727 1409.27 628.867 1400.47 619.524C1391.67 610.181 1383.27 602.367 1375.23 596.056C1367.2 589.77 1361.28 586.615 1357.46 586.615C1357.06 586.615 1356.89 587.478 1356.89 589.154C1356.89 600.049 1359.28 612.696 1364.07 627.141C1368.85 641.587 1377.35 659.878 1389.6 681.965L1356.89 692.17L1449.83 850.281H1382.13L1306.41 709.007L1298.94 711.053L1323.05 850.306H1266.25L1209.46 541.726H1267.41L1288.63 662.081L1317.25 655.983C1311.88 640.675 1307.49 626.328 1304.07 612.893C1300.64 599.458 1298.91 587.823 1298.91 577.962C1298.91 566.056 1301.3 556.713 1306.09 549.91C1310.87 543.106 1318.04 539.705 1327.61 539.705Z" fill="#141414"/>
<path d="M1327.61 539.705C1340.6 539.705 1353.91 542.515 1367.49 548.111C1381.05 553.731 1393.6 560.362 1405.06 568.003C1416.52 575.645 1426.28 583.386 1434.32 591.225C1442.36 599.039 1447.14 605.178 1448.67 609.59V676.912C1442.92 668.752 1435.65 659.483 1426.88 649.105C1418.08 638.727 1409.27 628.867 1400.47 619.524C1391.67 610.181 1383.27 602.367 1375.23 596.056C1367.2 589.77 1361.28 586.615 1357.46 586.615C1357.06 586.615 1356.89 587.478 1356.89 589.154C1356.89 600.049 1359.28 612.696 1364.07 627.141C1368.85 641.587 1377.35 659.878 1389.6 681.965L1356.89 692.17L1449.83 850.281H1382.13L1306.41 709.007L1298.94 711.053L1323.05 850.306H1266.25L1209.46 541.726H1267.41L1288.63 662.081L1317.25 655.983C1311.88 640.675 1307.49 626.328 1304.07 612.893C1300.64 599.458 1298.91 587.823 1298.91 577.962C1298.91 566.056 1301.3 556.713 1306.09 549.91C1310.87 543.106 1318.04 539.705 1327.61 539.705Z" stroke="white"/>
<path d="M1488.11 774.824C1499.96 774.824 1510.1 778.572 1518.5 786.041C1526.91 793.535 1531.12 802.532 1531.12 813.058C1531.12 823.584 1526.91 832.607 1518.5 840.101C1510.1 847.594 1499.94 851.317 1488.11 851.317C1476.28 851.317 1466.12 847.57 1457.71 840.101C1449.31 832.632 1445.09 823.608 1445.09 813.058C1445.09 802.532 1449.31 793.51 1457.71 786.041C1466.12 778.572 1476.25 774.825 1488.11 774.824ZM1515.08 757.989H1457.71V542.219H1515.08V757.989Z" fill="#060606"/>
<path d="M1488.11 774.824C1499.96 774.824 1510.1 778.572 1518.5 786.041C1526.91 793.535 1531.12 802.532 1531.12 813.058C1531.12 823.584 1526.91 832.607 1518.5 840.101C1510.1 847.594 1499.94 851.317 1488.11 851.317C1476.28 851.317 1466.12 847.57 1457.71 840.101C1449.31 832.632 1445.09 823.608 1445.09 813.058C1445.09 802.532 1449.31 793.51 1457.71 786.041C1466.12 778.572 1476.25 774.825 1488.11 774.824ZM1515.08 757.989H1457.71V542.219H1515.08V757.989Z" stroke="white"/>
<defs>
<filter id="filter0_f_4019_2929" x="0.1" y="0.1" width="1846.3" height="1577.1" filterUnits="userSpaceOnUse" color-interpolation-filters="sRGB">
<feFlood flood-opacity="0" result="BackgroundImageFix"/>
<feBlend mode="normal" in="SourceGraphic" in2="BackgroundImageFix" result="shape"/>
<feGaussianBlur stdDeviation="4.45" result="effect1_foregroundBlur_4019_2929"/>
</filter>
<linearGradient id="paint0_linear_4019_2929" x1="1157.24" y1="852.105" x2="911.618" y2="539.458" gradientUnits="userSpaceOnUse">
<stop offset="0.587286"/>
<stop offset="1" stop-color="#999999"/>
</linearGradient>
</defs>
</svg>
