<svg width="361" height="308" viewBox="0 0 361 308" fill="none" xmlns="http://www.w3.org/2000/svg">
<path d="M25 228L38 171L0.5 147L38 113.5L20 27.5L105 88L128.5 14L202 73.5L233 0.5L273.5 76L344.5 46L324.5 125.5L360.5 188L290 184L286 214L258.5 196L236 234L188.5 214L197 268L231.5 305.5L229 307.5L184 275.5L146.5 204.5L102.5 262.5L85.5 207L25 228Z" fill="#F85601"/>
<path d="M123.77 165.716C123.571 165.939 123.348 166.153 123.091 166.342C121.732 167.381 120.266 168.371 118.737 169.298C120.121 168.439 121.494 167.493 122.843 166.473C122.965 166.386 123.246 166.148 123.625 165.838C123.668 165.794 123.727 165.76 123.77 165.716Z" fill="#F5F6F6"/>
<path d="M305.761 158.8C305.761 162.484 304.257 165.765 301.398 168.293C298.743 170.657 295.385 171.909 291.716 171.909C289.964 171.909 288.289 171.632 286.726 171.084C285.945 171.487 285.076 171.71 284.159 171.71H270.827C268.774 171.71 266.876 170.584 265.906 168.774L264.755 166.609C264.653 167.75 264.207 168.842 263.46 169.72C262.402 170.982 260.839 171.705 259.184 171.705H248.002C245.313 171.705 243.003 169.788 242.522 167.143L239.542 150.996C239.508 151.108 239.455 151.229 239.406 151.341C237.853 155.136 235.757 158.572 233.189 161.571C230.535 164.663 227.341 167.172 223.696 169.036C219.901 170.977 215.518 171.958 210.655 171.958C206.049 171.958 201.953 171.011 198.493 169.123C195.838 167.672 193.528 165.808 191.596 163.566C191.208 163.911 190.815 164.246 190.402 164.571C187.578 166.891 184.423 168.735 181.031 170.026C177.56 171.375 174.066 172.055 170.664 172.055C167.917 172.055 165.107 171.472 162.306 170.337C159.516 169.211 156.939 167.527 154.662 165.328C154.594 165.26 154.517 165.192 154.449 165.114L154.148 166.968C153.701 169.667 151.372 171.657 148.635 171.657H145.019C137.142 171.657 129.988 169.516 124.086 165.444C123.984 165.532 123.873 165.624 123.751 165.711C123.708 165.755 123.65 165.789 123.606 165.833C123.227 166.143 122.946 166.381 122.824 166.468C121.475 167.483 120.102 168.434 118.719 169.293C118.675 169.317 118.631 169.351 118.583 169.371C117.544 170.016 116.505 170.608 115.457 171.157C115.457 171.157 115.423 171.181 115.404 171.191C107.056 175.573 97.5726 177.995 88.6813 177.995C66.4967 178 51 163.416 51 142.532C51 122.769 65.0261 108.432 84.3618 108.432C93.7142 108.432 101.844 111.679 107.245 117.571C107.503 117.848 107.745 118.129 107.983 118.406C108.027 118.081 108.085 117.746 108.138 117.411C111.274 98.0802 121.64 87 136.569 87C143.723 87 149.61 89.4752 153.609 94.1538C156.609 97.6676 158.395 102.254 158.909 107.699C160.962 105.68 163.248 103.982 165.738 102.613C169.63 100.449 174.037 99.3566 178.813 99.3566C183.821 99.3566 188.073 100.764 191.455 103.53C192.848 104.666 194.377 106.365 195.493 108.821C197.245 106.923 199.221 105.239 201.395 103.778C205.749 100.842 210.956 99.3614 216.882 99.3614C221.066 99.3614 224.837 100.133 228.093 101.638C229.321 102.205 230.481 102.856 231.563 103.579C231.777 102.943 232.112 102.351 232.544 101.827C233.602 100.546 235.179 99.8079 236.829 99.8079H248.235C250.074 99.8079 251.739 100.711 252.763 102.118C254.67 100.366 257.213 99.4197 260.091 99.4197C263.382 99.4197 266.74 100.109 270.079 101.497C273.079 102.735 275.894 104.229 278.437 105.928C279.029 106.316 279.597 106.709 280.145 107.112V105.496C280.145 102.414 282.645 99.9196 285.722 99.9196H297.015C300.107 99.9196 302.592 102.419 302.592 105.496V147.972C302.592 148.72 302.446 149.433 302.189 150.084C304.533 152.505 305.761 155.505 305.761 158.82V158.8Z" fill="#F5F6F6"/>
<path d="M119.717 161.858C118.446 162.785 117.165 163.712 115.845 164.537C117.184 163.722 118.49 162.843 119.727 161.902L119.717 161.858ZM116.505 154.015C116.281 154.17 116.048 154.326 115.811 154.471C116.044 154.326 116.281 154.18 116.514 154.034L116.505 154.01V154.015Z" fill="#141414"/>
<path d="M136.573 92.5814C149.114 92.5814 155.444 101.817 152.954 117.484C150.921 130.335 143.344 142.988 132.399 152.53C136.234 155.844 141.199 157.752 147.081 157.752H150.018L148.658 166.085H145.043C136.686 166.085 129.686 163.372 124.377 158.553C123.969 158.184 119.972 161.658 119.485 162.023C117.403 163.59 115.205 165.013 112.895 166.221C112.885 166.236 112.875 166.245 112.851 166.245C105.25 170.254 96.6257 172.428 88.7051 172.428C70.709 172.428 56.5713 161.416 56.5713 142.536C56.5714 125.822 67.9767 114.019 84.3662 114.019C98.9164 114.019 109.113 123.254 107.987 136.276L97.543 136.029C97.3877 128.317 91.7627 123.497 83.8857 123.497C74.2471 123.497 67.3408 130.806 67.3408 141.809C67.3409 154.83 76.6592 163.042 89.8359 162.94C97.5139 162.872 105.362 160.441 112.05 156.738C112.623 156.427 119.164 152.481 119.067 152.33C113.535 143.793 111.506 131.845 113.646 118.289C116.466 100.915 125.28 92.5816 136.573 92.5814ZM136.016 100.914C130.357 100.914 125.615 106.84 123.81 118.386C122.116 129.231 123.362 138.767 127.088 145.698C135.444 137.467 141.315 127.223 143.009 116.581C144.596 106.637 141.675 100.914 136.016 100.914Z" fill="#141414"/>
<path d="M136.573 92.5814C149.114 92.5814 155.444 101.817 152.954 117.484C150.921 130.335 143.344 142.988 132.399 152.53C136.234 155.844 141.199 157.752 147.081 157.752H150.018L148.658 166.085H145.043C136.686 166.085 129.686 163.372 124.377 158.553C123.969 158.184 119.972 161.658 119.485 162.023C117.403 163.59 115.205 165.013 112.895 166.221C112.885 166.236 112.875 166.245 112.851 166.245C105.25 170.254 96.6257 172.428 88.7051 172.428C70.709 172.428 56.5713 161.416 56.5713 142.536C56.5714 125.822 67.9767 114.019 84.3662 114.019C98.9164 114.019 109.113 123.254 107.987 136.276L97.543 136.029C97.3877 128.317 91.7627 123.497 83.8857 123.497C74.2471 123.497 67.3408 130.806 67.3408 141.809C67.3409 154.83 76.6592 163.042 89.8359 162.94C97.5139 162.872 105.362 160.441 112.05 156.738C112.623 156.427 119.164 152.481 119.067 152.33C113.535 143.793 111.506 131.845 113.646 118.289C116.466 100.915 125.28 92.5816 136.573 92.5814ZM136.016 100.914C130.357 100.914 125.615 106.84 123.81 118.386C122.116 129.231 123.362 138.767 127.088 145.698C135.444 137.467 141.315 127.223 143.009 116.581C144.596 106.637 141.675 100.914 136.016 100.914Z" stroke="white"/>
<path d="M178.817 104.928C182.511 104.928 185.549 105.899 187.912 107.84L187.907 107.845C190.28 109.787 191.465 112.699 191.465 116.582C191.465 120.464 190.708 124.235 189.213 127.884C187.699 131.534 185.602 134.762 182.889 137.572C180.181 140.382 176.977 142.624 173.284 144.298C169.591 145.973 165.562 146.808 161.199 146.808C159.535 146.808 157.603 146.599 155.385 146.163C153.167 145.726 151.032 145.002 149.003 143.998V133.15C149.605 133.684 150.221 134.214 150.866 134.713C151.502 135.213 152.051 135.524 152.497 135.66C152.798 131.709 153.638 127.884 154.987 124.167C156.346 120.449 158.156 117.169 160.408 114.325C162.675 111.481 165.339 109.204 168.431 107.496C171.508 105.787 175.124 104.928 178.817 104.928ZM181.302 119.697C181.302 116.149 179.637 114.474 176.337 114.673C173.993 115.008 171.984 115.834 170.29 117.139C168.591 118.445 167.184 120.095 166.048 122.104C164.922 124.113 164.053 126.39 163.461 128.933C162.849 131.476 162.437 134.087 162.214 136.766C165.606 136.635 168.504 135.985 170.916 134.815C173.328 133.641 175.303 132.214 176.842 130.54C178.38 128.865 179.521 127.079 180.234 125.171L180.229 125.176C180.943 123.269 181.302 121.439 181.302 119.697Z" fill="#141414"/>
<path d="M178.817 104.928C182.511 104.928 185.549 105.899 187.912 107.84L187.907 107.845C190.28 109.787 191.465 112.699 191.465 116.582C191.465 120.464 190.708 124.235 189.213 127.884C187.699 131.534 185.602 134.762 182.889 137.572C180.181 140.382 176.977 142.624 173.284 144.298C169.591 145.973 165.562 146.808 161.199 146.808C159.535 146.808 157.603 146.599 155.385 146.163C153.167 145.726 151.032 145.002 149.003 143.998V133.15C149.605 133.684 150.221 134.214 150.866 134.713C151.502 135.213 152.051 135.524 152.497 135.66C152.798 131.709 153.638 127.884 154.987 124.167C156.346 120.449 158.156 117.169 160.408 114.325C162.675 111.481 165.339 109.204 168.431 107.496C171.508 105.787 175.124 104.928 178.817 104.928ZM181.302 119.697C181.302 116.149 179.637 114.474 176.337 114.673C173.993 115.008 171.984 115.834 170.29 117.139C168.591 118.445 167.184 120.095 166.048 122.104C164.922 124.113 164.053 126.39 163.461 128.933C162.849 131.476 162.437 134.087 162.214 136.766C165.606 136.635 168.504 135.985 170.916 134.815C173.328 133.641 175.303 132.214 176.842 130.54C178.38 128.865 179.521 127.079 180.234 125.171L180.229 125.176C180.943 123.269 181.302 121.439 181.302 119.697Z" stroke="white"/>
<path d="M216.891 104.938C220.273 104.938 223.229 105.53 225.748 106.7C228.272 107.869 230.402 109.456 232.13 111.465C233.858 113.475 235.197 115.838 236.134 118.551C237.08 121.264 237.663 124.152 237.887 127.234H226.369C225.767 124.623 224.976 122.347 223.991 120.406C223.021 118.464 221.982 116.858 220.89 115.586C219.798 114.315 218.691 113.369 217.556 112.728C216.43 112.092 215.367 111.767 214.396 111.767C212.591 111.767 210.858 112.592 209.198 114.232C207.548 115.872 206.107 117.984 204.903 120.561C203.7 123.138 202.739 125.982 202.025 129.098C201.312 132.209 200.952 135.232 200.952 138.178C200.952 141.391 201.312 144.328 202.025 146.973C202.739 149.618 203.7 151.87 204.903 153.743C206.107 155.616 207.47 157.077 208.975 158.116C210.479 159.154 212.023 159.669 213.605 159.669C215.187 159.669 216.575 159.198 218.012 158.261C219.439 157.325 220.735 155.985 221.904 154.243C223.074 152.5 224.045 150.36 224.841 147.817C225.632 145.274 226.146 142.43 226.369 139.28V139.275L237.328 139.077C236.649 142.556 235.634 145.94 234.271 149.22C232.921 152.501 231.145 155.413 228.971 157.956C226.782 160.499 224.186 162.542 221.172 164.081C218.158 165.619 214.653 166.391 210.674 166.391C206.98 166.391 203.821 165.677 201.181 164.236C198.545 162.794 196.38 160.868 194.687 158.456C193.784 157.174 193.003 155.777 192.367 154.306C190.829 156.558 189.009 158.548 186.897 160.266C184.519 162.207 181.908 163.736 179.045 164.842C176.186 165.949 173.4 166.493 170.688 166.493C168.659 166.493 166.571 166.056 164.426 165.187C162.271 164.318 160.32 163.032 158.544 161.324C155.069 157.98 152.749 153.126 152.521 148.297C152.506 147.972 152.448 147.575 152.525 147.264C154.044 147.57 155.496 148.055 157.044 148.259C157.801 148.361 158.558 148.429 159.32 148.477C159.524 148.492 161.616 148.487 161.626 148.545C162.029 150.225 163 151.87 164.092 153.205C165.077 154.413 166.329 155.428 167.79 155.981C171.449 157.364 176.05 155.796 179.219 153.845C182.043 152.103 184.544 149.928 186.728 147.317C187.853 145.968 188.892 144.57 189.853 143.133C189.794 142.352 189.775 141.571 189.775 140.79C189.775 136.975 190.289 132.956 191.304 128.739C192.318 124.521 193.915 120.663 196.104 117.144C198.292 113.63 201.093 110.718 204.515 108.408C207.941 106.098 212.067 104.938 216.891 104.938Z" fill="url(#paint0_linear_4051_3095)"/>
<path d="M216.891 104.938C220.273 104.938 223.229 105.53 225.748 106.7C228.272 107.869 230.402 109.456 232.13 111.465C233.858 113.475 235.197 115.838 236.134 118.551C237.08 121.264 237.663 124.152 237.887 127.234H226.369C225.767 124.623 224.976 122.347 223.991 120.406C223.021 118.464 221.982 116.858 220.89 115.586C219.798 114.315 218.691 113.369 217.556 112.728C216.43 112.092 215.367 111.767 214.396 111.767C212.591 111.767 210.858 112.592 209.198 114.232C207.548 115.872 206.107 117.984 204.903 120.561C203.7 123.138 202.739 125.982 202.025 129.098C201.312 132.209 200.952 135.232 200.952 138.178C200.952 141.391 201.312 144.328 202.025 146.973C202.739 149.618 203.7 151.87 204.903 153.743C206.107 155.616 207.47 157.077 208.975 158.116C210.479 159.154 212.023 159.669 213.605 159.669C215.187 159.669 216.575 159.198 218.012 158.261C219.439 157.325 220.735 155.985 221.904 154.243C223.074 152.5 224.045 150.36 224.841 147.817C225.632 145.274 226.146 142.43 226.369 139.28V139.275L237.328 139.077C236.649 142.556 235.634 145.94 234.271 149.22C232.921 152.501 231.145 155.413 228.971 157.956C226.782 160.499 224.186 162.542 221.172 164.081C218.158 165.619 214.653 166.391 210.674 166.391C206.98 166.391 203.821 165.677 201.181 164.236C198.545 162.794 196.38 160.868 194.687 158.456C193.784 157.174 193.003 155.777 192.367 154.306C190.829 156.558 189.009 158.548 186.897 160.266C184.519 162.207 181.908 163.736 179.045 164.842C176.186 165.949 173.4 166.493 170.688 166.493C168.659 166.493 166.571 166.056 164.426 165.187C162.271 164.318 160.32 163.032 158.544 161.324C155.069 157.98 152.749 153.126 152.521 148.297C152.506 147.972 152.448 147.575 152.525 147.264C154.044 147.57 155.496 148.055 157.044 148.259C157.801 148.361 158.558 148.429 159.32 148.477C159.524 148.492 161.616 148.487 161.626 148.545C162.029 150.225 163 151.87 164.092 153.205C165.077 154.413 166.329 155.428 167.79 155.981C171.449 157.364 176.05 155.796 179.219 153.845C182.043 152.103 184.544 149.928 186.728 147.317C187.853 145.968 188.892 144.57 189.853 143.133C189.794 142.352 189.775 141.571 189.775 140.79C189.775 136.975 190.289 132.956 191.304 128.739C192.318 124.521 193.915 120.663 196.104 117.144C198.292 113.63 201.093 110.718 204.515 108.408C207.941 106.098 212.067 104.938 216.891 104.938Z" stroke="white"/>
<path d="M260.11 104.987C262.668 104.987 265.289 105.54 267.963 106.642C270.632 107.748 273.103 109.053 275.359 110.558C277.616 112.062 279.539 113.587 281.121 115.13C282.703 116.668 283.644 117.877 283.945 118.745V132C282.815 130.394 281.383 128.569 279.655 126.526C277.923 124.482 276.19 122.541 274.457 120.701C272.724 118.862 271.069 117.324 269.487 116.081C267.905 114.844 266.741 114.223 265.988 114.223C265.911 114.223 265.876 114.392 265.876 114.722C265.876 116.867 266.348 119.357 267.289 122.201C268.231 125.045 269.904 128.647 272.316 132.995L265.876 135.004L284.174 166.134H270.847L255.937 138.32L254.466 138.722L259.213 166.139H248.03L236.849 105.385H248.259L252.437 129.079L258.072 127.88C257.014 124.866 256.15 122.041 255.476 119.396C254.801 116.751 254.461 114.46 254.461 112.519C254.461 110.175 254.933 108.336 255.874 106.996C256.816 105.657 258.227 104.987 260.11 104.987Z" fill="#141414"/>
<path d="M260.11 104.987C262.668 104.987 265.289 105.54 267.963 106.642C270.632 107.748 273.103 109.053 275.359 110.558C277.616 112.062 279.539 113.587 281.121 115.13C282.703 116.668 283.644 117.877 283.945 118.745V132C282.815 130.394 281.383 128.569 279.655 126.526C277.923 124.482 276.19 122.541 274.457 120.701C272.724 118.862 271.069 117.324 269.487 116.081C267.905 114.844 266.741 114.223 265.988 114.223C265.911 114.223 265.876 114.392 265.876 114.722C265.876 116.867 266.348 119.357 267.289 122.201C268.231 125.045 269.904 128.647 272.316 132.995L265.876 135.004L284.174 166.134H270.847L255.937 138.32L254.466 138.722L259.213 166.139H248.03L236.849 105.385H248.259L252.437 129.079L258.072 127.88C257.014 124.866 256.15 122.041 255.476 119.396C254.801 116.751 254.461 114.46 254.461 112.519C254.461 110.175 254.933 108.336 255.874 106.996C256.816 105.657 258.227 104.987 260.11 104.987Z" stroke="white"/>
<path d="M291.71 151.277C294.044 151.277 296.039 152.015 297.694 153.485C299.349 154.961 300.18 156.733 300.18 158.805C300.18 160.877 299.349 162.654 297.694 164.129C296.039 165.604 294.04 166.337 291.71 166.337C289.381 166.337 287.381 165.599 285.727 164.129C284.072 162.658 283.241 160.882 283.241 158.805C283.241 156.733 284.072 154.956 285.727 153.485C287.381 152.015 289.376 151.278 291.71 151.277ZM297.02 147.963H285.727V105.482H297.02V147.963Z" fill="#060606"/>
<path d="M291.71 151.277C294.044 151.277 296.039 152.015 297.694 153.485C299.349 154.961 300.18 156.733 300.18 158.805C300.18 160.877 299.349 162.654 297.694 164.129C296.039 165.604 294.04 166.337 291.71 166.337C289.381 166.337 287.381 165.599 285.727 164.129C284.072 162.658 283.241 160.882 283.241 158.805C283.241 156.733 284.072 154.956 285.727 153.485C287.381 152.015 289.376 151.278 291.71 151.277ZM297.02 147.963H285.727V105.482H297.02V147.963Z" stroke="white"/>
<defs>
<linearGradient id="paint0_linear_4051_3095" x1="226.568" y1="166.493" x2="178.209" y2="104.938" gradientUnits="userSpaceOnUse">
<stop offset="0.587286"/>
<stop offset="1" stop-color="#999999"/>
</linearGradient>
</defs>
</svg>
