<svg width="195" height="210" viewBox="0 0 195 210" fill="none" xmlns="http://www.w3.org/2000/svg">
<g clip-path="url(#clip0_3922_2580)">
<path d="M26.6118 104.935L149.688 62.5471C152.374 61.6223 155.301 63.0495 156.225 65.7349L187.409 156.278C188.333 158.964 186.906 161.89 184.221 162.815L61.1442 205.203C58.4589 206.128 55.5322 204.701 54.6074 202.015L23.4241 111.472C22.4993 108.786 23.9265 105.86 26.6118 104.935Z" fill="url(#paint0_linear_3922_2580)"/>
<path d="M42.7905 35.311L152.849 52.3613C155.655 52.7961 157.578 55.4238 157.143 58.2305L153.956 78.8046C153.521 81.6113 150.893 83.5341 148.087 83.0993L38.0286 66.049C35.2219 65.6142 33.2991 62.9865 33.7339 60.1798L36.9212 39.6057C37.3561 36.799 39.9838 34.8762 42.7905 35.311Z" fill="#FE3566"/>
<path d="M68.6411 197.321C69.6266 200.204 72.7594 201.744 75.642 200.759L184.473 163.54C187.352 162.556 188.891 159.419 187.905 156.537L156.306 64.1205C156.015 63.2711 155.935 62.3638 156.074 61.4787L156.497 58.7931C156.973 55.7869 154.917 52.9604 151.908 52.4893L137.242 50.1809L43.2997 35.403C40.2909 34.9319 37.4685 36.9869 36.9974 39.9957L35.1544 51.701C34.6833 54.7097 36.7383 57.5322 39.7471 58.0032L124.487 71.3353L41.1373 99.8362C38.2548 100.822 36.7158 103.959 37.7013 106.841L68.6411 197.321Z" fill="url(#paint1_linear_3922_2580)"/>
<path d="M124.486 71.3353L156.074 61.4787L156.496 58.7931C156.973 55.7869 154.917 52.9604 151.908 52.4893L137.241 50.1809L124.486 71.3353Z" fill="url(#paint2_linear_3922_2580)"/>
<path d="M116.245 70.0371L111.882 46.1909L96.1858 43.7229L87.4692 65.508" fill="url(#paint3_linear_3922_2580)"/>
<path d="M72.4318 63.1456L64.3324 38.7106L53.1604 36.9545L43.361 58.5717L72.4318 63.1456Z" fill="url(#paint4_linear_3922_2580)"/>
</g>
<defs>
<linearGradient id="paint0_linear_3922_2580" x1="88.1502" y1="83.741" x2="122.683" y2="184.009" gradientUnits="userSpaceOnUse">
<stop stop-color="#FF99DF"/>
<stop offset="1" stop-color="#FFA8E3"/>
</linearGradient>
<linearGradient id="paint1_linear_3922_2580" x1="189.376" y1="148.29" x2="8.09075" y2="87.5984" gradientUnits="userSpaceOnUse">
<stop stop-color="#FF99DF"/>
<stop offset="1" stop-color="#FE1944"/>
</linearGradient>
<linearGradient id="paint2_linear_3922_2580" x1="135.704" y1="50.7335" x2="141.452" y2="66.7322" gradientUnits="userSpaceOnUse">
<stop stop-color="#FF99DF"/>
<stop offset="1" stop-color="#FFA8E3"/>
</linearGradient>
<linearGradient id="paint3_linear_3922_2580" x1="95.4176" y1="43.999" x2="106.085" y2="73.6879" gradientUnits="userSpaceOnUse">
<stop stop-color="#FF99DF"/>
<stop offset="1" stop-color="#FFA8E3"/>
</linearGradient>
<linearGradient id="paint4_linear_3922_2580" x1="50.0492" y1="38.0723" x2="60.5874" y2="67.4014" gradientUnits="userSpaceOnUse">
<stop stop-color="#FF99DF"/>
<stop offset="1" stop-color="#FFA8E3"/>
</linearGradient>
<clipPath id="clip0_3922_2580">
<rect width="145.737" height="169.215" fill="white" transform="matrix(-0.941095 0.338142 0.338142 0.941095 137.152 0.736206)"/>
</clipPath>
</defs>
</svg>
